<?xml version="1.0" encoding="UTF-8"?>
<svg width="1454px" height="367px" viewBox="0 0 1454 367" version="1.1" xmlns="http://www.w3.org/2000/svg" xmlns:xlink="http://www.w3.org/1999/xlink">
    <title>export22</title>
    <g id="Page-5" stroke="none" stroke-width="1" fill="none" fill-rule="evenodd">
        <g id="Artboard" transform="translate(-347.000000, -309.000000)" fill-rule="nonzero">
            <g id="export22" transform="translate(347.905313, 309.372301)">
                <g id="Group" transform="translate(474.413357, 202.647382) scale(-1, 1) rotate(-180.000000) translate(-474.413357, -202.647382) translate(0.000000, 40.208132)" fill="currentColor">
                    <path d="M121.189375,324.320706 C102.989375,322.920706 82.0893745,318.020706 70.9893745,312.420706 C64.1893745,309.020706 54.6893745,300.720706 49.4893745,293.720706 C38.0893745,278.420706 32.5893745,258.720706 30.8893745,228.020706 L30.6893745,223.520706 L16.8893745,223.020706 C4.68937454,222.620706 2.88937454,222.320706 1.58937454,220.620706 C-0.610625463,217.520706 -0.510625463,162.420706 1.78937454,159.220706 C3.18937454,157.120706 3.98937454,157.020706 16.0893745,157.020706 C24.5893745,157.020706 29.1893745,156.620706 29.9893745,155.820706 C30.8893745,154.920706 31.1893745,137.120706 31.1893745,82.0207065 C31.1893745,18.0207065 31.3893745,9.22070649 32.7893745,7.22070649 C34.2893745,5.02070649 34.3893745,5.02070649 65.6893745,5.02070649 C96.9893745,5.02070649 97.0893745,5.02070649 98.5893745,7.22070649 C99.9893745,9.22070649 100.189375,18.0207065 100.189375,82.0207065 C100.189375,137.120706 100.489375,154.920706 101.389375,155.820706 C102.289375,156.720706 109.189375,157.020706 126.289375,157.020706 C146.589375,157.020706 150.289375,157.220706 151.589375,158.620706 C152.989375,159.920706 153.189375,164.220706 153.189375,190.420706 C153.189375,212.520706 152.889375,220.920706 151.989375,221.820706 C151.089375,222.720706 143.989375,223.020706 126.089375,223.020706 C112.489375,223.020706 101.089375,223.320706 100.889375,223.820706 C99.9893745,225.320706 102.189375,237.220706 104.289375,242.120706 C107.089375,248.620706 113.589375,254.320706 121.489375,257.020706 C126.589375,258.820706 130.689375,259.320706 144.389375,259.720706 C159.389375,260.220706 161.289375,260.520706 162.889375,262.220706 C164.489375,264.020706 164.689375,266.720706 164.689375,293.220706 C164.689375,320.720706 164.589375,322.220706 162.789375,323.620706 C161.189375,324.720706 157.089375,325.020706 143.289375,324.820706 C133.589375,324.720706 123.689375,324.520706 121.189375,324.320706 Z" id="Path"></path>
                    <path d="M490.689375,227.620706 C475.789375,224.720706 460.589375,216.920706 449.289375,206.420706 C446.089375,203.420706 443.189375,201.020706 442.789375,201.020706 C442.489375,201.020706 442.189375,205.120706 442.189375,210.020706 C442.189375,223.920706 444.389375,223.020706 408.289375,223.020706 C381.289375,223.020706 378.189375,222.820706 376.289375,221.320706 L374.189375,219.520706 L373.989375,114.620706 L373.789375,9.82070649 L376.089375,7.92070649 C378.289375,6.12070649 380.489375,6.02070649 408.089375,6.02070649 C432.189375,6.02070649 438.189375,6.32070649 439.789375,7.42070649 C441.589375,8.82070649 441.689375,10.9207065 442.189375,71.2207065 C442.789375,132.720706 442.789375,133.620706 445.089375,140.520706 C450.489375,157.220706 460.789375,165.620706 475.689375,165.420706 C492.789375,165.120706 503.889375,154.020706 507.189375,133.820706 C507.789375,130.020706 508.189375,103.720706 508.189375,68.3207065 L508.189375,9.12070649 L510.389375,7.62070649 C512.289375,6.22070649 516.989375,6.02070649 541.789375,6.02070649 C569.589375,6.02070649 571.089375,6.12070649 573.489375,8.02070649 L576.089375,10.1207065 L576.389375,71.8207065 C576.689375,131.620706 576.789375,133.720706 578.889375,139.720706 C585.789375,160.020706 600.589375,169.320706 618.289375,164.420706 C623.589375,162.920706 625.689375,161.620706 630.289375,157.120706 C636.589375,150.820706 639.589375,144.420706 641.189375,133.220706 C641.689375,129.520706 642.189375,100.120706 642.189375,67.8207065 L642.189375,9.12070649 L644.389375,7.62070649 C646.289375,6.22070649 651.089375,6.02070649 676.389375,6.02070649 C705.189375,6.02070649 706.289375,6.12070649 708.289375,8.12070649 C710.289375,10.1207065 710.289375,10.4207065 709.889375,83.3207065 C709.589375,153.820706 709.489375,156.920706 707.389375,166.020706 C703.189375,184.820706 696.089375,198.320706 684.689375,209.620706 C672.889375,221.320706 658.089375,227.520706 639.189375,228.720706 C615.989375,230.120706 589.889375,220.120706 572.389375,203.220706 L567.089375,198.120706 L557.389375,207.920706 C546.789375,218.620706 538.489375,223.520706 525.989375,226.520706 C516.889375,228.720706 499.189375,229.220706 490.689375,227.620706 Z" id="Path"></path>
                    <path d="M241.689375,227.420706 C216.489375,224.820706 180.489375,212.920706 175.689375,205.620706 C173.989375,203.120706 174.089375,202.820706 181.189375,187.320706 C192.989375,161.820706 194.989375,158.020706 197.089375,158.020706 C198.089375,158.020706 203.189375,160.020706 208.489375,162.520706 C220.889375,168.420706 231.189375,171.020706 244.689375,171.720706 C266.989375,172.820706 280.689375,166.120706 285.589375,151.720706 C287.089375,147.220706 287.789375,138.920706 286.689375,137.920706 C286.489375,137.620706 282.289375,138.320706 277.489375,139.320706 C266.289375,141.820706 229.989375,142.320706 218.189375,140.120706 C191.189375,135.220706 172.789375,124.020706 165.189375,107.820706 C159.589375,95.8207065 157.889375,87.2207065 157.889375,70.0207065 C157.889375,52.5207065 159.589375,44.0207065 165.389375,32.2207065 C175.889375,11.0207065 201.289375,0.120706488 233.489375,3.12070649 C250.489375,4.72070649 266.689375,10.1207065 280.689375,18.8207065 C283.389375,20.5207065 285.989375,21.6207065 286.389375,21.4207065 C286.789375,21.1207065 287.189375,18.2207065 287.189375,15.0207065 C287.189375,5.72070649 286.189375,6.02070649 321.389375,6.02070649 C349.889375,6.02070649 351.289375,6.12070649 353.189375,8.02070649 C355.189375,10.0207065 355.189375,11.3207065 355.189375,79.8207065 C355.189375,154.020706 354.889375,160.320706 350.189375,174.020706 C347.489375,182.320706 341.989375,192.220706 337.089375,198.120706 C326.289375,211.020706 307.389375,221.020706 285.189375,225.520706 C277.889375,227.020706 249.689375,228.220706 241.689375,227.420706 Z M275.189375,95.6207065 C278.789375,94.8207065 282.889375,93.7207065 284.489375,93.1207065 L287.189375,92.0207065 L287.189375,81.5207065 L287.189375,70.9207065 L282.589375,66.0207065 C274.889375,57.7207065 264.689375,54.0207065 249.589375,54.0207065 C234.989375,54.0207065 226.689375,57.6207065 223.089375,65.4207065 C220.789375,70.4207065 220.689375,74.1207065 222.689375,80.8207065 C226.489375,93.5207065 237.189375,98.4207065 258.689375,97.4207065 C264.189375,97.2207065 271.589375,96.4207065 275.189375,95.6207065 Z" id="Shape"></path>
                    <path d="M827.689375,225.420706 C807.789375,222.720706 798.289375,220.120706 785.689375,213.720706 C774.289375,208.020706 766.789375,202.820706 757.889375,194.120706 C747.789375,184.420706 742.089375,176.720706 736.389375,165.520706 C727.589375,147.920706 724.189375,133.620706 724.189375,114.120706 C724.189375,55.2207065 764.289375,8.82070649 821.989375,1.02070649 C857.289375,-3.77929351 894.189375,8.52070649 921.789375,34.3207065 C926.089375,38.3207065 929.189375,42.0207065 929.189375,43.1207065 C929.189375,44.2207065 925.489375,49.0207065 920.989375,53.8207065 C904.789375,71.0207065 894.689375,81.0207065 893.489375,81.0207065 C892.889375,81.0207065 889.689375,78.8207065 886.489375,76.2207065 C855.689375,50.7207065 825.289375,49.3207065 802.089375,72.2207065 C796.589375,77.6207065 790.189375,87.0207065 790.189375,89.8207065 C790.189375,90.7207065 806.389375,91.0207065 868.089375,91.0207065 L945.989375,91.0207065 L947.089375,97.3207065 C951.389375,122.020706 947.689375,145.720706 936.189375,167.920706 C924.389375,190.620706 901.289375,210.020706 875.589375,218.820706 C862.689375,223.220706 837.389375,226.720706 827.689375,225.420706 Z M849.089375,165.920706 C860.289375,163.420706 871.689375,154.220706 877.589375,143.120706 C879.589375,139.320706 881.189375,135.720706 881.189375,135.120706 C881.189375,134.320706 868.389375,134.020706 836.189375,134.020706 C805.989375,134.020706 791.189375,134.320706 791.189375,135.020706 C791.189375,135.620706 792.489375,138.620706 794.089375,141.820706 C804.289375,161.820706 825.589375,171.220706 849.089375,165.920706 Z" id="Shape"></path>
                </g>
                <g id="export79" transform="translate(891.835947, 0.000000)">
                    <g id="Group" transform="translate(280.176714, 183.000000) scale(-1, 1) rotate(-180.000000) translate(-280.176714, -183.000000) translate(0.000000, 0.000000)">
                        <path d="M89.5101876,365.440444 C81.7003711,363.710524 76.3461289,360.997995 73.5837095,350.827269 C70.8212901,340.656542 78.4807258,329.53684 87.709718,325.0793 C88.030245,324.919683 87.709718,324.333155 87.709718,323.893679 C87.709718,323.516985 86.8307663,317.866582 85.7634679,311.274445 C84.6961695,304.74509 82.9382662,293.318718 81.8081855,285.973194 C80.6781049,278.690452 79.6108065,272.53779 79.4224597,272.349444 C79.2341129,272.161097 74.7137902,274.860734 69.4400803,278.313758 C64.1035882,281.766783 55.5024186,286.789363 50.2914911,289.363436 L40.7485875,294.134888 L41.3764101,296.395049 C42.2553618,299.47138 39.2418133,313.785735 28.9455227,317.866582 C18.6492321,321.947429 7.285643,317.678235 2.51419125,307.946985 C-2.25726051,298.215735 0.944634749,291.435251 2.51419125,288.233355 C4.71157035,283.838597 8.91798176,280.008879 13.1243932,278.564887 C17.3308046,277.120895 24.1740709,277.623153 27.6270952,279.255492 L30.0128211,280.385573 L32.9008051,277.623153 C40.9997166,269.712589 49.789233,255.461016 55.1257251,241.586136 C58.3276203,233.110531 61.7178624,222.688676 62.7223785,218.042789 C63.0990721,216.159321 63.5385479,214.4642 63.6013302,214.401418 C63.6641124,214.275853 68.3727819,216.222103 74.0231853,218.733394 C97.3154038,229.029684 121.10988,238.258676 140.446816,244.411338 C146.160002,246.232023 151.057018,247.927144 151.308147,248.178274 C151.559276,248.429403 152.312663,252.133556 153.003268,256.40275 C154.572825,266.824605 155.82847,272.349444 158.088631,279.883315 C160.348793,287.228839 165.810849,301.41763 167.066495,303.112751 C167.819882,304.180049 168.318002,306.481873 169.996743,305.72644 C171.675484,304.971006 183.300456,304.971006 188.592501,308.614862 C193.884547,312.258717 195.750912,315.717501 195.750912,325.0793 C195.750912,334.441099 193.121132,339.149768 185.085003,342.853922 C177.048874,346.558075 168.044589,344.813329 162.528198,340.177968 C157.011806,335.542606 155.451776,331.929808 155.075083,325.400453 C154.761172,320.31509 155.012301,318.93388 156.958551,314.099646 C157.272462,313.471824 156.205164,312.278961 153.505526,310.332711 C148.294599,306.565775 135.989276,294.637146 129.334356,286.914928 C126.320808,283.399121 123.558388,280.134444 123.181695,279.694968 C122.616655,279.067145 121.298227,281.515654 117.21738,290.995775 C114.329396,297.650694 109.620727,308.198114 106.732743,314.413558 C103.907541,320.566219 101.521815,325.714365 101.521815,325.839929 C101.521815,325.965494 106.356049,326.028276 111.253065,334.441099 C116.150082,342.853922 114.752324,353.941732 108.411316,359.529353 C102.384219,364.803063 97.320004,367.170364 89.5101876,365.440444 Z" id="Path" fill="#E49D30"></path>
                        <path d="M408.007132,327.64935 C407.675916,327.569645 402.311623,326.467752 395.970614,325.400453 C389.566824,324.395937 378.705493,322.386905 371.799444,321.068477 C364.893396,319.687268 357.359524,318.243276 354.973799,317.866582 C350.202347,316.98763 348.256097,315.731985 346.749322,312.592872 C345.807589,310.646622 345.744806,297.713477 345.744806,160.408674 C345.744806,66.3608488 345.995935,9.73125029 346.372629,8.72673413 C347.691056,5.27370983 348.004968,5.20997066 380.902872,5.20997066 C414.428599,5.20997066 414.051905,5.14814531 415.809808,9.29177447 C416.500413,11.0496777 416.68876,20.780928 416.751542,67.8048407 C416.814325,111.1246 417.002671,125.815649 417.630494,131.089359 C420.204567,151.995851 426.985051,164.050045 439.541503,169.951578 C445.5686,172.776779 449.523882,173.655731 457.120535,173.592949 C464.403278,173.592949 469.488641,172.274521 474.385657,169.135408 C482.861262,163.673352 487.130456,155.197747 489.20227,139.502182 C489.390617,137.869843 489.704528,107.79714 489.892875,72.6390747 C490.081222,25.7407266 490.395133,8.53838735 490.897391,7.91056475 C493.09477,5.27370983 493.785375,5.20997066 525.30207,5.20997066 C554.433038,5.20997066 555.625901,5.27370983 557.321022,6.46657277 C558.262756,7.15717763 559.392837,8.47560509 559.76953,9.48012125 C560.334571,10.861331 560.460135,29.1309686 560.271789,85.00718 C560.146224,125.56452 559.895095,159.278593 559.706748,159.969198 C559.518401,160.659803 559.141708,163.045529 558.890579,165.30569 C558.325538,170.767747 555.751466,182.382465 553.93078,187.718957 C544.701788,214.778111 524.171989,231.729321 495.794408,235.621822 C489.20227,236.563555 477.210859,236.563555 468.798036,235.621822 C450.214487,233.550007 432.384325,224.258232 420.706825,210.5717 C418.321099,207.746498 416.186502,205.486337 415.935373,205.486337 C415.621462,205.486337 415.433115,232.357144 415.433115,265.129484 C415.433115,304.474628 415.433115,324.376604 415.433115,324.835413 C415.433115,325.523626 415.249385,326.214477 414.235123,327.030429 C413.22086,327.84638 409.565823,327.982089 408.007132,327.64935 Z" id="Path" fill="currentColor"></path>
                        <path d="M235.875851,236.437991 C216.162222,234.554523 208.251657,232.419926 194.125649,225.137184 C182.573713,219.172869 171.775164,208.499885 166.313107,197.638554 C160.725486,186.337747 159.030365,177.924925 159.407059,162.480489 C159.783752,149.924037 160.851051,144.775891 165.183027,135.609681 C171.272906,122.864883 183.89214,111.68964 200.403875,104.658027 C207.623834,101.518914 212.332504,99.8865756 238.073231,91.6620995 C256.593997,85.6977848 264.253433,81.1146798 267.266981,74.145849 C268.522627,71.1950828 268.585409,70.5044779 267.957586,67.7420585 C267.266981,64.7912923 265.069602,61.1499212 262.872223,59.3292356 C260.925973,57.7596791 256.091739,55.4995178 252.136457,54.4322194 C246.737182,52.9254451 232.673956,52.8626629 225.202867,54.3694371 C222.252101,54.9344774 219.301335,55.5623 218.547948,55.6878646 C216.036657,56.1901226 202.287342,61.2127034 198.206495,63.0961712 C195.946334,64.1634697 190.672624,66.9886714 186.528995,69.311615 C178.178955,74.0202845 176.044358,74.5225425 173.846979,72.1995989 C171.084559,69.2488327 154.886736,31.7678235 154.886736,28.3147992 C154.886736,24.3595169 160.913833,19.9019764 174.663148,13.5609681 C185.650043,8.47560509 192.744439,6.21544373 205.426455,3.64137108 C220.054722,0.690604859 227.149117,3.5687583e-14 241.840166,3.5687583e-14 C252.952626,0.0627822599 255.338352,0.25112904 262.558312,1.69512102 C267.078635,2.63685492 271.598957,3.64137108 272.603473,3.95528238 C273.670772,4.26919368 277.312143,5.39927435 280.702385,6.52935503 C300.416015,12.6192342 316.237144,25.6779443 324.022144,42.2524609 C327.726298,50.1630257 328.668032,53.2393564 329.798112,60.7732276 C331.618798,72.5762925 330.865411,87.0162123 328.040209,95.6173819 C321.636419,115.393794 306.505894,129.833714 283.527587,138.309319 C275.993716,141.13452 257.975207,146.784924 243.723634,150.865771 C235.938634,153.06315 229.15815,156.13948 225.705125,158.964682 C221.435932,162.606053 219.678028,168.884279 221.624278,173.655731 C222.879924,176.543715 226.960771,179.996739 231.229964,181.69186 C234.557424,183.010288 235.938634,183.135852 244.665368,183.135852 C251.759763,183.135852 255.84061,182.884723 259.670328,182.005772 C267.957586,180.247868 280.514038,175.664763 290.433635,170.893312 C300.792708,165.933513 303.115652,165.494037 305.626942,168.319239 C307.447628,170.265489 311.654039,178.61553 318.685652,194.311095 C324.649967,207.558151 325.026661,208.939361 323.143193,212.204039 C318.560088,220.365732 291.061458,231.98045 269.464361,234.931217 C258.289118,236.437991 243.033029,237.128596 235.875851,236.437991 Z" id="Path" fill="currentColor"></path>
                        <path d="M134.796413,224.634926 C116.777904,218.545047 98.3827022,211.387869 88.5258874,206.741982 C84.9472985,204.984079 79.5480242,202.598353 76.6600402,201.40549 C73.7720563,200.212627 69.4678402,198.178156 67.6471546,197.17364 L68.6009959,189.230086 C69.5822944,181.722857 70.3818142,168.696353 70.5073788,154.897661 C70.6329433,141.09897 70.3818142,118.34456 70.5073788,77.7244378 C70.8212901,4.45754046 70.8212901,7.41936887 74.2743144,5.90153243 C75.3436271,5.43149754 85.1356453,5.21092757 106.167702,5.21092757 C124.683541,5.07420171 134.791485,5.07420171 136.491534,5.21092757 C140.35121,5.52134075 140.325165,4.38461196 140.697945,87.1417768 C140.899575,131.903506 141.200203,167.000811 141.639679,172.52565 C143.020889,191.988151 145.155486,212.957426 146.787825,223.442063 C147.101736,225.513878 147.352865,227.460128 147.352865,227.648475 C147.352865,228.590208 144.088187,227.836821 134.796413,224.634926 Z" id="Path" fill="currentColor"></path>
                    </g>
                </g>
            </g>
        </g>
    </g>
</svg>