<svg xmlns="http://www.w3.org/2000/svg" xmlns:xlink="http://www.w3.org/1999/xlink" viewBox="0 0 1024 1024">
    <defs>
        <rect id="a" x="0" y="0" width="1024" height="1024" rx="256"/>
    </defs>
    <g fill="none" fill-rule="evenodd">
        <mask id="b" fill="#fff">
            <use xlink:href="#a"/>
        </mask>
        <use fill="#000" xlink:href="#a"/>
        <path d="M494,194.58807 C543.104252,194.58807 582.911113,234.394931 582.911113,283.499183 C582.911113,320.894867 559.824369,352.898352 527.126285,366.034236 C528.39315,369.182421 537.608612,389.083797 548.379185,412.539712 C554.157963,424.976648 561.711606,441.636537 569.310758,458.613422 L570.51075,461.296047 C578.109902,478.295481 585.663544,495.406333 591.442323,508.722648 C608.203424,547.659976 613.618549,557.716637 615.939317,555.138006 C617.486496,553.332965 628.832472,539.924083 641.209901,525.48375 C668.54339,493.766588 722.211987,447.176992 740.487195,429.300813 C746.189429,423.723084 750.484909,419.126921 753.373637,415.512322 C741.903538,400.541758 735.088887,381.816294 735.088887,361.499183 C735.088887,312.394931 774.895748,272.58807 824,272.58807 C873.104252,272.58807 912.911113,312.394931 912.911113,361.499183 C912.911113,410.603435 873.104252,450.410297 824,450.410297 C816.608082,450.410297 809.426851,449.50824 802.560382,447.808201 C779.895896,498.797591 765.479892,534.316172 759.311201,554.364417 C756.990433,562.10031 754.927528,569.320477 753.037875,576.46812 L752.587642,578.182388 C747.149217,599.027905 743.130291,619.557366 738.42429,650.805217 C735.587796,668.339907 732.493439,683.55383 731.461986,684.585283 C730.430534,685.616735 710.317212,692.579039 686.85167,700.057069 C607.429835,725.327652 509.69972,763.233528 414.03251,805.523077 C390.824831,815.837601 371.485098,823.831357 371.227235,823.315631 C370.969372,823.057767 369.16433,816.095464 367.617152,808.359571 C364.564053,794.238987 356.145132,767.127467 346.644574,739.877566 L345.871973,737.668065 C345.484572,736.563416 345.095583,735.459111 344.705293,734.356006 L343.923061,732.15165 L343.923061,732.15165 L343.137864,729.952015 C340.909419,723.727844 338.65139,717.578866 336.415717,711.660908 C314.497353,654.673163 278.396519,596.138239 245.132179,563.647489 L245.132179,563.647489 L233.587021,552.605766 C221.177586,559.184718 207.023966,562.911113 192,562.911113 C142.895748,562.911113 103.088887,523.104252 103.088887,474 C103.088887,424.895748 142.895748,385.088887 192,385.088887 C241.104252,385.088887 280.911113,424.895748 280.911113,474 C280.911113,481.666959 279.940679,489.107262 278.115942,496.204776 L316.560258,515.427089 C337.962895,525.999476 373.29014,546.628524 395.208503,560.810995 C416.869004,574.993465 435.435147,586.081578 436.208736,585.307989 C436.982326,584.5344 441.365998,559.263816 446.007534,529.351696 C450.64907,499.181714 457.869237,452.250629 462.252909,425.432867 C466.636582,398.357241 470.246666,375.149562 470.246666,373.602384 L470.246666,373.602384 L470.245802,369.201731 C432.674717,358.810948 405.088887,324.376573 405.088887,283.499183 C405.088887,234.394931 444.895748,194.58807 494,194.58807 Z" stroke="#000" fill="#E49D30" fill-rule="nonzero" mask="url(#b)"/>
    </g>
</svg>